<svg width="249" height="175" viewBox="0 0 249 175" fill="none" xmlns="http://www.w3.org/2000/svg">
<path d="M247.306 170.711C248.124 170.581 248.682 169.812 248.551 168.994C248.421 168.176 247.652 167.618 246.834 167.748L247.306 170.711ZM151.67 156.53L150.303 157.148L150.303 157.148L151.67 156.53ZM208.74 115.06L210.234 114.921L210.234 114.92L208.74 115.06ZM106.28 76.6098L106.87 75.2306L106.869 75.2304L106.28 76.6098ZM6.86739 2.68108C6.48151 1.94801 5.5744 1.66658 4.84135 2.05247C4.10829 2.43835 3.82686 3.34546 4.21275 4.07851L6.86739 2.68108ZM37.4986 13.4964C38.2921 13.7347 39.1284 13.2846 39.3667 12.4912C39.6049 11.6978 39.1549 10.8614 38.3615 10.6232L37.4986 13.4964ZM4.43005 1.99979L4.86147 0.563171C4.42352 0.431656 3.94951 0.50708 3.57402 0.768036C3.19853 1.02899 2.96259 1.44696 2.93317 1.90327L4.43005 1.99979ZM0.503143 39.5933C0.449844 40.42 1.07681 41.1334 1.90352 41.1867C2.73022 41.24 3.44362 40.613 3.49692 39.7863L0.503143 39.5933ZM247.07 169.23C246.834 167.748 246.834 167.748 246.834 167.749C246.833 167.749 246.832 167.749 246.831 167.749C246.829 167.749 246.826 167.75 246.821 167.751C246.811 167.752 246.797 167.754 246.777 167.757C246.738 167.764 246.68 167.773 246.602 167.785C246.446 167.809 246.213 167.844 245.908 167.889C245.298 167.98 244.4 168.109 243.252 168.265C240.955 168.577 237.657 168.993 233.662 169.413C225.669 170.252 214.901 171.099 203.779 171.137C192.639 171.176 181.227 170.402 171.911 168.037C162.513 165.652 155.682 161.759 153.037 155.912L150.303 157.148C153.543 164.31 161.579 168.51 171.173 170.945C180.847 173.401 192.549 174.176 203.789 174.137C215.046 174.098 225.921 173.242 233.976 172.396C238.005 171.973 241.333 171.553 243.655 171.238C244.817 171.08 245.727 170.949 246.348 170.857C246.658 170.811 246.897 170.775 247.058 170.75C247.139 170.737 247.2 170.728 247.242 170.721C247.262 170.718 247.278 170.716 247.289 170.714C247.294 170.713 247.298 170.712 247.301 170.712C247.303 170.712 247.304 170.711 247.305 170.711C247.305 170.711 247.306 170.711 247.07 169.23ZM153.037 155.912C151.677 152.905 151.602 150.621 152.251 148.808C152.911 146.963 154.416 145.337 156.751 143.86C161.484 140.867 168.937 138.896 177.027 136.887C184.972 134.914 193.472 132.914 199.812 129.797C202.998 128.231 205.764 126.326 207.658 123.89C209.586 121.411 210.561 118.444 210.234 114.921L207.246 115.199C207.501 117.941 206.763 120.155 205.29 122.048C203.784 123.984 201.464 125.642 198.489 127.105C192.508 130.046 184.388 131.967 176.303 133.975C168.363 135.947 160.376 138.018 155.148 141.325C152.502 142.998 150.396 145.087 149.426 147.797C148.445 150.538 148.72 153.647 150.303 157.148L153.037 155.912ZM210.234 114.92C209.582 107.943 204.953 103.149 198.219 99.6218C191.515 96.1106 182.454 93.7016 172.356 91.5587C152 87.2387 127.24 83.9388 106.87 75.2306L105.69 77.9891C126.42 86.8508 151.72 90.2459 171.734 94.4934C181.821 96.6342 190.522 98.9771 196.827 102.279C203.102 105.566 206.728 109.646 207.247 115.199L210.234 114.92ZM106.869 75.2304C86.3987 66.4843 64.8439 54.9445 46.6621 42.2596C28.4387 29.5458 13.7715 15.7963 6.86739 2.68108L4.21275 4.07851C11.4587 17.8432 26.6114 31.9288 44.9455 44.72C63.3212 57.5401 85.0614 69.1753 105.691 77.9892L106.869 75.2304ZM38.3615 10.6232L4.86147 0.563171L3.99864 3.4364L37.4986 13.4964L38.3615 10.6232ZM2.93317 1.90327L0.503143 39.5933L3.49692 39.7863L5.92694 2.0963L2.93317 1.90327Z" fill="#6F6969"/>
</svg>
