<svg width="64" height="64" viewBox="0 0 64 64" fill="none" xmlns="http://www.w3.org/2000/svg">
<rect width="64" height="64" rx="16" fill="#CBE3FF"/>
<g clip-path="url(#clip0_12_4268)">
<path d="M27.0401 16.718C27.101 16.5107 27.2275 16.3286 27.4006 16.1992C27.5736 16.0698 27.784 15.9999 28.0001 16H36.0001C36.1585 16.0001 36.3145 16.0379 36.4555 16.1101C36.5964 16.1823 36.7182 16.287 36.8107 16.4155C36.9033 16.544 36.964 16.6926 36.9879 16.8492C37.0118 17.0058 36.9981 17.1657 36.9481 17.316L33.3881 28H41.0001C41.1874 27.9999 41.3709 28.0523 41.5298 28.1514C41.6887 28.2505 41.8166 28.3922 41.899 28.5604C41.9813 28.7286 42.0147 28.9165 41.9955 29.1028C41.9762 29.2891 41.9051 29.4662 41.7901 29.614L27.7901 47.614C27.6467 47.7993 27.4427 47.9283 27.2139 47.9786C26.985 48.0289 26.7458 47.9972 26.5379 47.8891C26.3301 47.781 26.1667 47.6033 26.0765 47.3871C25.9862 47.1709 25.9748 46.9298 26.0441 46.706L29.6461 35H23.0001C22.8446 35.0001 22.6913 34.9639 22.5522 34.8944C22.4132 34.8249 22.2923 34.7238 22.1991 34.5994C22.1059 34.475 22.043 34.3305 22.0154 34.1775C21.9878 34.0245 21.9963 33.8672 22.0401 33.718L27.0401 16.718Z" fill="#006BE8"/>
</g>
<defs>
<clipPath id="clip0_12_4268">
<rect width="32" height="32" fill="white" transform="translate(16 16)"/>
</clipPath>
</defs>
</svg>
