<svg width="64" height="64" viewBox="0 0 64 64" fill="none" xmlns="http://www.w3.org/2000/svg">
<path opacity="0.5" d="M26.6666 53.3332H36.3386C35.2036 51.8698 34.3703 50.1959 33.8868 48.4082C33.4033 46.6205 33.2792 44.7547 33.5219 42.9188C33.7645 41.0828 34.369 39.3133 35.3002 37.7126C36.2315 36.1119 37.4712 34.7119 38.9473 33.5936C40.4234 32.4754 42.1068 31.6611 43.8998 31.1979C45.6929 30.7348 47.56 30.632 49.393 30.8954C51.2261 31.1589 52.9887 31.7835 54.5787 32.7329C56.1687 33.6823 57.5545 34.9377 58.6559 36.4265C58.663 35.0754 58.6666 33.5998 58.6666 31.9998C58.6666 30.8212 58.6666 27.7118 58.6613 26.6665H5.33859C5.33325 27.7118 5.33325 30.8212 5.33325 31.9998C5.33325 42.0558 5.33325 47.0852 8.45859 50.2078C11.5839 53.3305 16.6106 53.3332 26.6666 53.3332Z" fill="#1B424C"/>
<path d="M14 42.6665C14 42.1361 14.2107 41.6274 14.5858 41.2523C14.9609 40.8772 15.4696 40.6665 16 40.6665H26.6667C27.1971 40.6665 27.7058 40.8772 28.0809 41.2523C28.456 41.6274 28.6667 42.1361 28.6667 42.6665C28.6667 43.1969 28.456 43.7056 28.0809 44.0807C27.7058 44.4558 27.1971 44.6665 26.6667 44.6665H16C15.4696 44.6665 14.9609 44.4558 14.5858 44.0807C14.2107 43.7056 14 43.1969 14 42.6665Z" fill="#1B424C"/>
<path fill-rule="evenodd" clip-rule="evenodd" d="M47.3333 38.6668C45.742 38.6668 44.2158 39.299 43.0906 40.4242C41.9654 41.5494 41.3333 43.0756 41.3333 44.6668C41.3333 46.2581 41.9654 47.7843 43.0906 48.9095C44.2158 50.0347 45.742 50.6668 47.3333 50.6668C48.9246 50.6668 50.4507 50.0347 51.5759 48.9095C52.7011 47.7843 53.3333 46.2581 53.3333 44.6668C53.3333 43.0756 52.7011 41.5494 51.5759 40.4242C50.4507 39.299 48.9246 38.6668 47.3333 38.6668ZM37.3333 44.6668C37.3337 43.1077 37.6988 41.5703 38.3992 40.1773C39.0997 38.7844 40.1162 37.5745 41.3675 36.6444C42.6188 35.7142 44.0702 35.0895 45.606 34.8202C47.1417 34.5509 48.7191 34.6444 50.2122 35.0933C51.7054 35.5422 53.0728 36.334 54.2055 37.4055C55.3381 38.4769 56.2045 39.7984 56.7355 41.2644C57.2665 42.7303 57.4473 44.3001 57.2636 45.8484C57.0798 47.3967 56.5366 48.8806 55.6773 50.1815L58.0799 52.5868C58.2764 52.7699 58.434 52.9907 58.5433 53.2361C58.6526 53.4814 58.7114 53.7462 58.7162 54.0148C58.7209 54.2833 58.6715 54.5501 58.5709 54.7991C58.4703 55.0481 58.3206 55.2744 58.1307 55.4643C57.9408 55.6542 57.7145 55.8039 57.4655 55.9045C57.2165 56.0051 56.9497 56.0545 56.6812 56.0498C56.4127 56.045 56.1478 55.9862 55.9025 55.8769C55.6572 55.7676 55.4363 55.61 55.2533 55.4135L52.8479 53.0108C51.3406 54.0073 49.5915 54.5767 47.7865 54.6586C45.9815 54.7405 44.188 54.3318 42.5967 53.476C41.0053 52.6201 39.6756 51.3491 38.7489 49.798C37.8221 48.2469 37.3329 46.4737 37.3333 44.6668Z" fill="#1B424C"/>
<path d="M26.6533 10.6665H37.3466C47.4293 10.6665 52.4719 10.6665 55.6026 13.6425C57.8586 15.7838 58.4906 18.8692 58.6666 23.9998V26.6665H5.33325V23.9998C5.50925 18.8665 6.14125 15.7865 8.39725 13.6425C11.5279 10.6665 16.5706 10.6665 26.6533 10.6665Z" fill="#1B424C"/>
</svg>
