<svg width="340" height="320" viewBox="0 0 340 320" fill="none" xmlns="http://www.w3.org/2000/svg">
<g opacity="0.1">
<path opacity="0.0526316" d="M-2.36462 286.987C6.67208 299.005 35.5544 319.114 78.7898 303.414C132.834 283.788 153.736 231.766 201.972 204.792C237.573 184.883 333.235 154.999 388.242 188.021" stroke="#CBE3FF" stroke-width="3"/>
<path opacity="0.105263" d="M-11.2781 261.794C-3.54758 274.69 23.0735 297.707 67.714 286.61C123.515 272.738 149.742 223.185 200.534 201.398C238.023 185.318 336.286 165.593 387.539 204.182" stroke="#CBE3FF" stroke-width="3"/>
<path opacity="0.157895" d="M-18.0118 236.261C-11.6722 249.894 12.3961 275.567 57.9526 269.194C114.898 261.229 146.164 214.688 198.956 198.327C237.921 186.252 337.708 176.901 384.645 220.634" stroke="#CBE3FF" stroke-width="3"/>
<path opacity="0.210526" d="M-22.5425 210.618C-17.6632 224.839 3.58853 252.885 49.5618 251.308C107.028 249.336 142.99 206.316 197.204 195.561C237.218 187.623 337.437 188.75 379.543 237.147" stroke="#CBE3FF" stroke-width="3"/>
<path opacity="0.263158" d="M-24.8706 185.095C-21.5052 199.747 -3.30274 229.86 42.5836 233.095C99.9415 237.138 140.205 198.112 195.246 193.08C235.871 189.366 335.423 200.958 372.238 253.489" stroke="#CBE3FF" stroke-width="3"/>
<path opacity="0.315789" d="M-25.0205 159.922C-23.2058 174.846 -8.25215 206.696 37.0446 214.707C93.6654 224.722 137.79 190.115 193.056 190.862C233.846 191.414 331.641 213.343 362.76 269.433" stroke="#CBE3FF" stroke-width="3"/>
<path opacity="0.368421" d="M-23.0459 135.324C-22.8002 150.356 -11.2566 183.598 32.9522 196.304C88.2131 212.186 135.708 182.382 190.589 188.906C231.096 193.72 326.058 225.76 351.145 284.801" stroke="#CBE3FF" stroke-width="3"/>
<path opacity="0.421053" d="M-19.0101 111.521C-20.3374 126.497 -12.3327 160.764 30.3045 178.02C83.601 199.591 133.95 174.914 187.848 187.137C227.629 196.159 318.718 237.948 337.495 299.289" stroke="#CBE3FF" stroke-width="3"/>
<path opacity="0.473684" d="M-13.0036 88.7271C-15.8913 103.481 -11.5162 138.391 29.0869 160.001C79.8406 187.015 132.504 167.731 184.834 185.512C223.458 198.636 309.686 249.699 321.942 312.656" stroke="#CBE3FF" stroke-width="3"/>
<path opacity="0.526316" d="M-5.15614 67.1359C-9.57097 81.5071 -8.87045 116.683 29.2502 142.417C76.9011 174.585 131.292 160.91 181.476 184.061C218.516 201.149 298.933 260.941 304.537 324.834" stroke="#CBE3FF" stroke-width="3"/>
<path opacity="0.578947" d="M4.40259 46.9356C-1.49091 60.7668 -4.47275 95.8234 30.748 125.4C74.7738 162.37 130.297 154.453 177.785 182.72C212.835 203.584 286.558 271.451 285.451 335.579" stroke="#CBE3FF" stroke-width="3"/>
<path opacity="0.631579" d="M15.5174 28.2986C8.2098 41.4383 1.57828 75.9912 33.5131 109.085C73.4317 150.453 129.479 148.381 173.751 181.455C206.427 205.867 272.649 281.065 264.841 344.726" stroke="#CBE3FF" stroke-width="3"/>
<path opacity="0.684211" d="M28.0168 11.3788C19.3752 23.683 9.16662 57.3538 37.4657 93.6034C72.8395 138.915 128.796 142.71 169.367 180.229C199.311 207.921 257.307 289.626 242.885 352.123" stroke="#CBE3FF" stroke-width="3"/>
<path opacity="0.736842" d="M41.7129 -3.68914C31.8319 7.64474 18.1582 40.0644 42.5115 79.0722C72.9531 127.832 128.206 137.452 164.631 179.005C191.516 209.673 240.649 296.991 219.771 357.638" stroke="#CBE3FF" stroke-width="3"/>
<path opacity="0.789474" d="M56.4063 -16.7902C45.3941 -6.55081 28.405 24.2626 48.5457 65.6012C73.7215 117.274 127.666 132.615 159.546 177.746C183.076 211.055 222.809 303.028 195.703 361.161" stroke="#CBE3FF" stroke-width="3"/>
<path opacity="0.842105" d="M71.8853 -27.8312C59.8628 -18.7985 39.7444 10.0711 55.4518 53.2875C75.086 107.308 127.131 128.201 154.117 176.415C174.035 212.001 203.932 307.621 170.895 362.604" stroke="#CBE3FF" stroke-width="3"/>
<path opacity="0.894737" d="M87.9303 -36.7407C75.029 -29.0136 52.0019 -2.40414 63.1038 42.2167C76.9813 97.9928 126.556 124.209 148.352 174.979C164.44 212.45 184.174 310.671 145.568 361.901" stroke="#CBE3FF" stroke-width="3"/>
<path opacity="0.947368" d="M104.315 -43.4713C90.6767 -37.1345 64.9931 -13.0768 71.368 32.4596C79.3367 89.3801 125.899 120.632 142.266 173.401C154.347 212.349 163.702 312.092 119.95 359.008" stroke="#CBE3FF" stroke-width="3"/>
<path d="M120.811 -48C106.584 -43.1229 78.5253 -21.8805 80.1034 24.0725C82.076 81.5138 125.115 117.46 135.874 171.65C143.816 211.646 142.689 311.821 94.2703 353.908" stroke="#CBE3FF" stroke-width="3"/>
</g>
</svg>
