<svg width="340" height="320" viewBox="0 0 340 320" fill="none" xmlns="http://www.w3.org/2000/svg">
<g opacity="0.1">
<path opacity="0.0344828" d="M34.5942 53.8021C36.3338 51.7283 38.9871 50.4018 42.58 49.8627C46.1813 49.3224 50.6634 49.5852 55.941 50.6403C66.4953 52.7505 80.0233 57.9861 95.6207 65.923C126.801 81.7895 166.05 108.347 205.958 141.843C245.866 175.339 278.828 209.391 299.864 237.351C310.387 251.337 317.89 263.754 321.801 273.785C323.756 278.8 324.793 283.17 324.886 286.811C324.979 290.444 324.134 293.288 322.395 295.362C320.655 297.436 318.002 298.762 314.409 299.301C310.807 299.842 306.325 299.579 301.048 298.524C290.493 296.414 276.965 291.178 261.368 283.241C230.188 267.375 190.939 240.817 151.031 207.321C111.123 173.825 78.1603 139.773 57.1248 111.813C46.6022 97.8269 39.0984 85.4098 35.1882 75.3795C33.2329 70.3638 32.1959 65.9942 32.1025 62.3528C32.0093 58.7199 32.8545 55.8759 34.5942 53.8021Z" stroke="#CBE3FF" stroke-width="2"/>
<path opacity="0.0689655" d="M45.6656 40.2088C47.5793 38.2946 50.338 37.2045 53.9642 36.9807C57.5989 36.7564 62.041 37.4089 67.2066 38.9202C77.5369 41.9424 90.5572 48.3374 105.404 57.604C135.083 76.1283 171.868 106.007 208.706 142.855C245.544 179.702 275.414 216.498 293.933 246.185C303.197 261.036 309.59 274.06 312.612 284.393C314.122 289.56 314.775 294.003 314.551 297.639C314.327 301.266 313.237 304.026 311.323 305.94C309.41 307.854 306.651 308.944 303.025 309.168C299.39 309.392 294.948 308.74 289.782 307.229C279.452 304.206 266.432 297.811 251.585 288.545C221.906 270.02 185.121 240.142 148.283 203.294C111.445 166.446 81.5751 129.651 63.0559 99.9635C53.7919 85.1129 47.3986 72.089 44.3772 61.7559C42.8664 56.5888 42.2141 52.1454 42.4383 48.5098C42.662 44.8826 43.7519 42.1231 45.6656 40.2088Z" stroke="#CBE3FF" stroke-width="2"/>
<path opacity="0.103448" d="M57.7478 27.6262C59.821 25.8861 62.6642 25.0407 66.2961 25.1339C69.9365 25.2273 74.3049 26.2646 79.3192 28.2204C89.3468 32.1317 101.76 39.6376 115.743 50.1632C143.695 71.2045 177.737 104.176 211.224 144.095C244.711 184.014 271.261 223.274 287.123 254.463C295.058 270.065 300.292 283.596 302.402 294.154C303.457 299.433 303.719 303.916 303.179 307.518C302.64 311.112 301.314 313.766 299.241 315.506C297.168 317.246 294.325 318.092 290.693 317.999C287.052 317.905 282.684 316.868 277.67 314.912C267.642 311.001 255.228 303.495 241.246 292.969C213.294 271.928 179.252 238.956 145.765 199.037C112.278 159.118 85.7276 119.858 69.8655 88.6695C61.9307 73.0679 56.6965 59.5362 54.587 48.979C53.5321 43.6998 53.2694 39.2165 53.8096 35.6142C54.3485 32.0203 55.6746 29.3663 57.7478 27.6262Z" stroke="#CBE3FF" stroke-width="2"/>
<path opacity="0.137931" d="M70.749 16.1389C72.9659 14.5862 75.8719 13.9918 79.4819 14.4013C83.1002 14.8118 87.3616 16.2259 92.1864 18.6115C101.835 23.3821 113.547 31.9416 126.56 43.6461C152.572 67.0442 183.612 102.858 213.493 145.545C243.374 188.231 266.403 229.657 279.487 262.109C286.032 278.343 290.067 292.28 291.249 302.981C291.84 308.332 291.711 312.821 290.859 316.363C290.009 319.896 288.457 322.424 286.24 323.977C284.023 325.53 281.117 326.124 277.507 325.714C273.889 325.304 269.627 323.89 264.802 321.504C255.154 316.734 243.441 308.174 230.429 296.47C204.417 273.072 173.377 237.258 143.496 194.571C113.615 151.884 90.586 110.459 77.5017 78.0064C70.9566 61.7723 66.9213 47.8358 65.7397 37.1348C65.1488 31.7838 65.2778 27.2946 66.1297 23.7532C66.9798 20.2199 68.5321 17.6916 70.749 16.1389Z" stroke="#CBE3FF" stroke-width="2"/>
<path opacity="0.172414" d="M84.5702 5.82342C86.9139 4.46988 89.8607 4.13112 93.4213 4.85378C96.9901 5.57811 101.112 7.35837 105.711 10.1555C114.907 15.7491 125.829 25.2971 137.772 38.0915C161.646 63.6683 189.448 102.052 215.496 147.181C241.544 192.31 260.875 235.586 271.082 269.056C276.188 285.799 278.993 300.034 279.238 310.797C279.361 316.179 278.841 320.64 277.684 324.094C276.529 327.54 274.762 329.923 272.419 331.276C270.075 332.63 267.128 332.969 263.568 332.246C259.999 331.522 255.877 329.741 251.278 326.944C242.082 321.351 231.16 311.803 219.217 299.008C195.343 273.432 167.541 235.048 141.493 189.919C115.445 144.789 96.1134 101.514 85.9067 68.0441C80.8009 51.3013 77.9954 37.0659 77.7506 26.3027C77.6282 20.9205 78.1478 16.4597 79.3051 13.006C80.4598 9.56024 82.2264 7.17695 84.5702 5.82342Z" stroke="#CBE3FF" stroke-width="2"/>
<path opacity="0.206897" d="M99.1062 -3.25422C101.559 -4.39826 104.524 -4.47886 108.008 -3.44852C111.5 -2.41584 115.451 -0.282976 119.789 2.90437C128.463 9.27848 138.511 19.7423 149.294 33.5292C170.849 61.09 195.2 101.752 217.217 148.98C239.234 196.208 254.721 241.004 261.973 275.236C265.6 292.361 267.155 306.787 266.461 317.53C266.114 322.903 265.207 327.301 263.753 330.641C262.303 333.973 260.335 336.193 257.883 337.337C255.43 338.481 252.465 338.562 248.981 337.531C245.489 336.499 241.537 334.366 237.2 331.178C228.526 324.804 218.478 314.34 207.695 300.554C186.14 272.993 161.789 232.331 139.772 185.103C117.755 137.875 102.268 93.0787 95.0163 58.8462C91.3887 41.722 89.8342 27.2962 90.5282 16.5526C90.8752 11.1802 91.7816 6.78164 93.2354 3.44199C94.6859 0.110009 96.6535 -2.11017 99.1062 -3.25422Z" stroke="#CBE3FF" stroke-width="2"/>
<path opacity="0.241379" d="M114.246 -11.0361C116.789 -11.9619 119.75 -11.7837 123.131 -10.4536C126.52 -9.1204 130.27 -6.65119 134.314 -3.09783C142.399 4.0082 151.498 15.3083 161.038 29.9827C180.11 59.3179 200.825 101.948 218.643 150.916C236.461 199.884 247.986 245.859 252.228 280.594C254.349 297.969 254.641 312.475 253.013 323.118C252.2 328.439 250.913 332.742 249.174 335.942C247.439 339.135 245.285 341.175 242.742 342.101C240.199 343.027 237.238 342.849 233.857 341.519C230.469 340.185 226.718 337.716 222.675 334.163C214.59 327.057 205.491 315.757 195.951 301.082C176.879 271.747 156.164 229.118 138.346 180.15C120.528 131.181 109.002 85.2059 104.761 50.4715C102.639 33.0961 102.348 18.5897 103.975 7.94747C104.789 2.62583 106.075 -1.677 107.814 -4.87722C109.55 -8.07003 111.703 -10.1102 114.246 -11.0361Z" stroke="#CBE3FF" stroke-width="2"/>
<path opacity="0.275862" d="M129.876 -17.4722C132.49 -18.1728 135.424 -17.7372 138.676 -16.1174C141.936 -14.4938 145.457 -11.707 149.175 -7.81469C156.61 -0.0308105 164.69 12.0195 172.915 27.4698C189.358 58.356 206.28 102.629 219.764 152.964C233.247 203.3 240.723 250.105 241.922 285.077C242.521 302.571 241.548 317.048 238.999 327.508C237.725 332.738 236.069 336.912 234.057 339.949C232.05 342.978 229.727 344.823 227.113 345.524C224.499 346.224 221.565 345.789 218.313 344.169C215.053 342.545 211.532 339.758 207.814 335.866C200.378 328.082 192.299 316.032 184.074 300.582C167.631 269.695 150.708 225.422 137.225 175.087C123.741 124.752 116.266 77.9464 115.067 42.9744C114.468 25.4802 115.441 11.0035 117.99 0.543682C119.264 -4.68676 120.92 -8.8611 122.932 -11.8975C124.938 -14.9269 127.262 -16.7716 129.876 -17.4722Z" stroke="#CBE3FF" stroke-width="2"/>
<path opacity="0.310345" d="M145.875 -22.5283C148.54 -22.9983 151.425 -22.3086 154.523 -20.4114C157.629 -18.5098 160.894 -15.4267 164.259 -11.225C170.988 -2.82251 177.987 9.88628 184.834 25.9949C198.524 58.197 211.524 103.777 220.57 155.096C229.617 206.415 232.986 253.694 231.133 288.638C230.206 306.118 227.975 320.454 224.524 330.652C222.799 335.752 220.786 339.766 218.517 342.615C216.254 345.458 213.779 347.093 211.114 347.563C208.449 348.033 205.564 347.344 202.465 345.446C199.359 343.545 196.094 340.462 192.73 336.26C186 327.858 179.002 315.149 172.154 299.04C158.465 266.838 145.464 221.258 136.418 169.939C127.372 118.62 124.003 71.3407 125.856 36.3973C126.783 18.9174 129.014 4.58072 132.464 -5.61719C134.189 -10.7166 136.203 -14.7307 138.471 -17.5802C140.735 -20.4231 143.21 -22.0582 145.875 -22.5283Z" stroke="#CBE3FF" stroke-width="2"/>
<path opacity="0.344828" d="M162.122 -26.1761C164.818 -26.4121 167.632 -25.4734 170.554 -23.3133C173.482 -21.1482 176.466 -17.7922 179.452 -13.3132C185.423 -4.35597 191.288 8.9146 196.706 25.5589C207.537 58.832 216.517 105.372 221.057 157.285C225.598 209.197 224.834 256.59 219.943 291.239C217.497 308.571 214.025 322.659 209.699 332.517C207.536 337.447 205.181 341.27 202.673 343.911C200.17 346.546 197.562 347.959 194.866 348.195C192.17 348.431 189.357 347.492 186.435 345.332C183.507 343.167 180.523 339.811 177.537 335.332C171.566 326.375 165.701 313.104 160.283 296.46C149.451 263.187 140.472 216.647 135.932 164.734C131.391 112.822 132.155 65.4289 137.045 30.78C139.492 13.4474 142.963 -0.640224 147.289 -10.4985C149.452 -15.4281 151.808 -19.2514 154.316 -21.8923C156.818 -24.5271 159.426 -25.9402 162.122 -26.1761Z" stroke="#CBE3FF" stroke-width="2"/>
<path opacity="0.37931" d="M178.494 -28.4C181.201 -28.4 183.922 -27.2197 186.644 -24.813C189.373 -22.4008 192.053 -18.7975 194.637 -14.0752C199.805 -4.63156 204.491 9.09979 208.439 26.1531C216.33 60.2438 221.22 107.39 221.22 159.5C221.22 211.611 216.33 258.757 208.439 292.848C204.491 309.901 199.805 323.632 194.637 333.076C192.053 337.798 189.373 341.402 186.644 343.814C183.922 346.221 181.201 347.401 178.494 347.401C175.788 347.401 173.067 346.221 170.345 343.814C167.616 341.402 164.936 337.798 162.352 333.076C157.184 323.632 152.498 309.901 148.55 292.848C140.659 258.757 135.769 211.611 135.769 159.5C135.769 107.39 140.659 60.2438 148.55 26.1531C152.498 9.09979 157.184 -4.63156 162.352 -14.0752C164.936 -18.7975 167.616 -22.4008 170.345 -24.813C173.067 -27.2197 175.788 -28.4 178.494 -28.4Z" stroke="#CBE3FF" stroke-width="2"/>
<path opacity="0.413793" d="M194.867 -29.1933C197.563 -28.9574 200.171 -27.5443 202.673 -24.9094C205.181 -22.2686 207.537 -18.4453 209.7 -13.5157C214.025 -3.6574 217.497 10.4302 219.944 27.7628C224.834 62.4117 225.598 109.805 221.057 161.717C216.517 213.629 207.537 260.17 196.706 293.443C191.288 310.087 185.423 323.357 179.452 332.315C176.466 336.794 173.482 340.15 170.554 342.315C167.632 344.475 164.818 345.414 162.122 345.178C159.426 344.942 156.818 343.529 154.316 340.894C151.808 338.253 149.452 334.43 147.289 329.5C142.964 319.642 139.492 305.554 137.045 288.221C132.155 253.573 131.391 206.18 135.932 154.267C140.472 102.355 149.452 55.8148 160.283 22.5417C165.701 5.89742 171.566 -7.37315 177.537 -16.3303C180.523 -20.8093 183.507 -24.1653 186.435 -26.3305C189.357 -28.4906 192.171 -29.4292 194.867 -29.1933Z" stroke="#CBE3FF" stroke-width="2"/>
<path opacity="0.448276" d="M211.114 -28.5621C213.779 -28.092 216.254 -26.4569 218.517 -23.6139C220.786 -20.7645 222.799 -16.7504 224.525 -11.651C227.975 -1.45306 230.206 12.8836 231.133 30.3635C232.986 65.307 229.617 112.586 220.571 163.905C211.524 215.224 198.524 260.804 184.835 293.006C177.987 309.115 170.988 321.824 164.259 330.226C160.894 334.428 157.629 337.511 154.524 339.413C151.425 341.31 148.54 342 145.875 341.53C143.21 341.059 140.735 339.424 138.471 336.581C136.203 333.732 134.189 329.718 132.464 324.618C129.014 314.421 126.783 300.084 125.856 282.604C124.003 247.661 127.372 200.382 136.418 149.063C145.465 97.7435 158.465 52.1633 172.154 19.9611C179.002 3.8525 186.001 -8.85629 192.73 -17.2588C196.095 -21.4604 199.359 -24.5436 202.465 -26.4451C205.564 -28.3424 208.449 -29.0321 211.114 -28.5621Z" stroke="#CBE3FF" stroke-width="2"/>
<path opacity="0.482759" d="M227.113 -26.5215C229.727 -25.8209 232.05 -23.9762 234.057 -20.9468C236.069 -17.9104 237.725 -13.7361 238.999 -8.50564C241.548 1.95423 242.521 16.4308 241.922 33.9251C240.723 68.8971 233.247 115.702 219.764 166.038C206.28 216.373 189.358 260.646 172.915 291.532C164.69 306.983 156.61 319.033 149.175 326.817C145.457 330.709 141.936 333.496 138.676 335.119C135.424 336.739 132.49 337.175 129.876 336.474C127.261 335.774 124.938 333.929 122.931 330.9C120.92 327.863 119.264 323.689 117.989 318.458C115.441 307.998 114.467 293.522 115.067 276.028C116.266 241.056 123.741 194.25 137.225 143.915C150.708 93.5801 167.631 49.3066 184.074 18.4205C192.299 2.97015 200.378 -9.08013 207.814 -16.864C211.532 -20.7563 215.053 -23.5431 218.313 -25.1667C221.565 -26.7865 224.499 -27.2222 227.113 -26.5215Z" stroke="#CBE3FF" stroke-width="2"/>
<path opacity="0.517241" d="M242.742 -23.1008C245.286 -22.175 247.439 -20.1348 249.174 -16.942C250.914 -13.7417 252.2 -9.43891 253.014 -4.11727C254.641 6.52498 254.349 21.0314 252.228 38.4067C247.986 73.1412 236.461 119.117 218.643 168.085C200.825 217.053 180.11 259.683 161.038 289.018C151.498 303.692 142.399 314.992 134.314 322.098C130.271 325.652 126.52 328.121 123.131 329.454C119.75 330.784 116.79 330.962 114.246 330.036C111.703 329.111 109.55 327.07 107.815 323.878C106.075 320.677 104.789 316.375 103.975 311.053C102.348 300.411 102.64 285.904 104.761 268.529C109.002 233.794 120.528 187.819 138.346 138.851C156.164 89.8828 176.879 47.2531 195.951 17.918C205.491 3.24354 214.59 -8.05654 222.675 -15.1626C226.718 -18.7159 230.469 -21.1851 233.858 -22.5184C237.239 -23.8485 240.199 -24.0267 242.742 -23.1008Z" stroke="#CBE3FF" stroke-width="2"/>
<path opacity="0.551724" d="M257.882 -18.3356C260.335 -17.1915 262.303 -14.9713 263.753 -11.6394C265.207 -8.29971 266.113 -3.90113 266.46 1.4712C267.154 12.2148 265.6 26.6406 261.972 43.7649C254.721 77.9974 239.233 122.793 217.217 170.022C195.2 217.25 170.849 257.911 149.294 285.472C138.511 299.259 128.463 309.723 119.789 316.097C115.451 319.284 111.5 321.417 108.008 322.45C104.524 323.48 101.559 323.4 99.1061 322.256C96.6533 321.112 94.6857 318.891 93.2353 315.559C91.7814 312.22 90.8751 307.821 90.5281 302.449C89.8341 291.705 91.3886 277.279 95.0161 260.155C102.268 225.923 117.755 181.127 139.772 133.898C161.789 86.6702 186.14 46.0087 207.695 18.4479C218.478 4.66098 228.526 -5.80288 237.2 -12.177C241.537 -15.3643 245.488 -17.4972 248.981 -18.5299C252.465 -19.5602 255.43 -19.4796 257.882 -18.3356Z" stroke="#CBE3FF" stroke-width="2"/>
<path opacity="0.586207" d="M272.418 -12.2751C274.762 -10.9216 276.529 -8.53827 277.684 -5.09252C278.841 -1.63882 279.36 2.82202 279.238 8.20416C278.993 18.9674 276.188 33.2028 271.082 49.9456C260.875 83.4157 241.544 126.691 215.496 171.82C189.447 216.949 161.646 255.333 137.772 280.91C125.829 293.704 114.907 303.252 105.71 308.846C101.112 311.643 96.9899 313.423 93.4211 314.148C89.8605 314.87 86.9138 314.531 84.57 313.178C82.2263 311.824 80.4596 309.441 79.305 305.995C78.1477 302.542 77.6281 298.081 77.7504 292.699C77.9952 281.935 80.8008 267.7 85.9065 250.957C96.1133 217.487 115.445 174.212 141.493 129.083C167.541 83.9536 195.342 45.5698 219.217 19.993C231.16 7.19864 242.082 -2.34937 251.278 -7.94304C255.877 -10.7401 259.999 -12.5204 263.567 -13.2447C267.128 -13.9674 270.075 -13.6286 272.418 -12.2751Z" stroke="#CBE3FF" stroke-width="2"/>
<path opacity="0.62069" d="M286.24 -4.97516C288.457 -3.42245 290.009 -0.894201 290.859 2.63908C291.711 6.18055 291.84 10.6697 291.249 16.0207C290.067 26.7217 286.032 40.6582 279.487 56.8923C266.403 89.3451 243.374 130.77 213.493 173.457C183.612 216.143 152.572 251.957 126.56 275.356C113.547 287.06 101.835 295.62 92.1863 300.39C87.3615 302.776 83.1001 304.19 79.4818 304.6C75.8718 305.01 72.9657 304.415 70.7488 302.863C68.5319 301.31 66.9796 298.782 66.1296 295.248C65.2777 291.707 65.1487 287.218 65.7396 281.867C66.9212 271.166 70.9564 257.229 77.5016 240.995C90.5858 208.542 113.614 167.117 143.496 124.431C173.377 81.7441 204.417 45.9301 230.429 22.532C243.441 10.8275 255.154 2.26802 264.802 -2.50263C269.627 -4.88816 273.888 -6.30231 277.507 -6.71277C281.117 -7.12227 284.023 -6.52788 286.24 -4.97516Z" stroke="#CBE3FF" stroke-width="2"/>
<path opacity="0.655172" d="M299.241 3.49461C301.314 5.2347 302.64 7.88866 303.179 11.4826C303.719 15.0849 303.457 19.5682 302.402 24.8473C300.292 35.4045 295.058 48.9363 287.123 64.5379C271.261 95.7266 244.711 134.987 211.224 174.906C177.737 214.825 143.695 247.796 115.743 268.838C101.76 279.363 89.3469 286.869 79.3192 290.78C74.3049 292.736 69.9365 293.774 66.2962 293.867C62.6643 293.96 59.821 293.115 57.7479 291.375C55.6747 289.635 54.3486 286.981 53.8097 283.387C53.2695 279.784 53.5322 275.301 54.587 270.022C56.6966 259.465 61.9308 245.933 69.8655 230.331C85.7276 199.143 112.278 159.883 145.765 119.964C179.252 80.0445 213.294 47.0728 241.246 26.0315C255.229 15.506 267.642 8.00012 277.67 4.08882C282.684 2.13298 287.052 1.0957 290.693 1.00228C294.325 0.909041 297.168 1.75452 299.241 3.49461Z" stroke="#CBE3FF" stroke-width="2"/>
<path opacity="0.689655" d="M311.323 13.0614C313.237 14.9757 314.327 17.7352 314.551 21.3624C314.775 24.998 314.122 29.4414 312.612 34.6085C309.59 44.9416 303.197 57.9655 293.933 72.8161C275.414 102.503 245.544 139.299 208.706 176.147C171.868 212.995 135.083 242.873 105.404 261.397C90.5572 270.664 77.5369 277.059 67.2066 280.081C62.041 281.593 57.5988 282.245 53.9642 282.021C50.338 281.797 47.5792 280.707 45.6655 278.793C43.7518 276.878 42.662 274.119 42.4383 270.492C42.2141 266.856 42.8664 262.413 44.3772 257.246C47.3986 246.912 53.7919 233.888 63.0559 219.038C81.5751 189.351 111.445 152.555 148.283 115.707C185.121 78.8594 221.906 48.9809 251.585 30.4566C266.432 21.19 279.452 14.795 289.782 11.7728C294.948 10.2615 299.39 9.60903 303.025 9.83331C306.651 10.0571 309.41 11.1472 311.323 13.0614Z" stroke="#CBE3FF" stroke-width="2"/>
<path opacity="0.724138" d="M322.395 23.6389C324.134 25.7127 324.98 28.5567 324.886 32.1896C324.793 35.831 323.756 40.2006 321.801 45.2163C317.89 55.2466 310.387 67.6637 299.864 81.65C278.829 109.61 245.866 143.661 205.958 177.158C166.05 210.654 126.801 237.211 95.6207 253.078C80.0234 261.015 66.4954 266.25 55.9411 268.361C50.6635 269.416 46.1814 269.678 42.5801 269.138C38.9871 268.599 36.3339 267.273 34.5942 265.199C32.8546 263.125 32.0094 260.281 32.1026 256.648C32.196 253.007 33.2329 248.637 35.1882 243.621C39.0985 233.591 46.6022 221.174 57.1249 207.188C78.1604 179.228 111.123 145.176 151.031 111.68C190.939 78.1841 230.188 51.6263 261.368 35.7598C276.966 27.8229 290.494 22.5872 301.048 20.4771C306.325 19.422 310.808 19.1592 314.409 19.6995C318.002 20.2386 320.655 21.5651 322.395 23.6389Z" stroke="#CBE3FF" stroke-width="2"/>
<path opacity="0.758621" d="M332.371 35.1352C333.923 37.3528 334.517 40.2597 334.108 43.8707C333.697 47.49 332.284 51.7526 329.899 56.5787C325.129 66.2301 316.572 77.9456 304.871 90.9614C281.48 116.981 245.675 148.029 203.001 177.919C160.326 207.808 118.912 230.843 86.4683 243.931C70.2387 250.478 56.306 254.514 45.6081 255.696C40.2586 256.287 35.7706 256.158 32.2302 255.306C28.6978 254.456 26.1702 252.903 24.6179 250.686C23.0656 248.468 22.4713 245.561 22.8807 241.95C23.2911 238.331 24.7048 234.068 27.0897 229.242C31.859 219.591 40.4161 207.875 52.1174 194.859C75.509 168.84 111.313 137.791 153.988 107.902C196.663 78.0126 238.076 54.9776 270.52 41.8898C286.75 35.3428 300.682 31.3064 311.38 30.1245C316.73 29.5334 321.218 29.6624 324.758 30.5146C328.291 31.3649 330.818 32.9176 332.371 35.1352Z" stroke="#CBE3FF" stroke-width="2"/>
<path opacity="0.793103" d="M341.176 47.452C342.529 49.7965 342.868 52.7441 342.145 56.3057C341.421 59.8755 339.641 63.9986 336.845 68.5985C331.253 77.7972 321.708 88.7222 308.917 100.668C283.347 124.549 244.974 152.358 199.857 178.414C154.741 204.469 111.477 223.806 78.0167 234.016C61.2784 239.123 47.0471 241.929 36.2868 242.174C30.9062 242.296 26.4466 241.776 22.9938 240.619C19.549 239.464 17.1663 237.697 15.8131 235.352C14.4599 233.008 14.1212 230.06 14.8437 226.499C15.5678 222.929 17.3476 218.806 20.1439 214.206C25.736 205.007 35.2814 194.082 48.0722 182.136C73.6419 158.255 112.015 130.446 157.132 104.39C202.248 78.3351 245.512 58.9983 278.972 48.7887C295.711 43.6815 309.942 40.8752 320.702 40.6304C326.083 40.5079 330.543 41.0277 333.995 42.1853C337.44 43.3403 339.823 45.1075 341.176 47.452Z" stroke="#CBE3FF" stroke-width="2"/>
<path opacity="0.827586" d="M348.745 60.4872C349.889 62.9408 349.97 65.9067 348.94 69.3917C347.907 72.8848 345.775 76.837 342.588 81.1755C336.216 89.8516 325.755 99.9027 311.972 110.688C284.419 132.249 243.768 156.606 196.553 178.628C149.337 200.651 104.554 216.142 70.3306 223.395C53.2109 227.024 38.7891 228.578 28.0484 227.884C22.6775 227.537 18.2801 226.63 14.9413 225.176C11.6102 223.725 9.39051 221.757 8.24668 219.304C7.10285 216.85 7.02229 213.884 8.05231 210.399C9.08471 206.906 11.217 202.954 14.4034 198.615C20.7757 189.939 31.2367 179.888 45.0198 169.103C72.573 147.542 113.223 123.185 160.439 101.162C207.654 79.14 252.438 63.6489 286.661 56.3955C303.781 52.7672 318.203 51.2124 328.944 51.9066C334.314 52.2538 338.712 53.1604 342.051 54.6146C345.382 56.0655 347.601 58.0337 348.745 60.4872Z" stroke="#CBE3FF" stroke-width="2"/>
<path opacity="0.862069" d="M355.016 74.123C355.941 76.667 355.763 79.6287 354.433 83.0106C353.101 86.4004 350.632 90.1517 347.08 94.1959C339.976 102.283 328.679 111.384 314.008 120.927C284.681 140.004 242.063 160.724 193.109 178.547C144.154 196.369 98.1911 207.897 63.4661 212.14C46.0955 214.262 31.5931 214.553 20.9537 212.925C15.6336 212.111 11.3319 210.825 8.13253 209.085C4.94054 207.349 2.90077 205.195 1.97508 202.651C1.04938 200.107 1.22757 197.145 2.55732 193.763C3.89015 190.374 6.35866 186.622 9.91101 182.578C17.015 174.491 28.3119 165.39 42.9823 155.847C72.3093 136.77 114.927 116.05 163.882 98.2272C212.837 80.4047 258.8 68.8767 293.525 64.6345C310.895 62.5124 325.398 62.2208 336.037 63.8487C341.357 64.6628 345.659 65.9493 348.858 67.6891C352.05 69.4248 354.09 71.5791 355.016 74.123Z" stroke="#CBE3FF" stroke-width="2"/>
<path opacity="0.896552" d="M359.951 88.2698C360.652 90.8847 360.217 93.8195 358.597 97.0725C356.974 100.333 354.189 103.854 350.297 107.573C342.516 115.01 330.469 123.091 315.023 131.317C284.145 147.762 239.884 164.686 189.562 178.17C139.24 191.654 92.446 199.128 57.4826 200.325C39.9927 200.924 25.5195 199.949 15.0621 197.399C9.83287 196.124 5.65947 194.468 2.62367 192.455C-0.405123 190.448 -2.24961 188.124 -2.95029 185.509C-3.65096 182.894 -3.21553 179.959 -1.59628 176.706C0.0267137 173.446 2.81258 169.924 6.70371 166.205C14.4852 158.769 26.5321 150.688 41.9781 142.462C72.8558 126.016 117.117 109.093 167.44 95.609C217.762 82.1252 264.555 74.6507 299.519 73.4539C317.008 72.8551 331.482 73.8296 341.939 76.3794C347.168 77.6544 351.342 79.3112 354.377 81.3234C357.406 83.3309 359.251 85.6548 359.951 88.2698Z" stroke="#CBE3FF" stroke-width="2"/>
<path opacity="0.931035" d="M363.494 102.758C363.964 105.424 363.275 108.31 361.378 111.409C359.477 114.516 356.395 117.781 352.194 121.147C343.794 127.877 331.089 134.877 314.985 141.726C282.792 155.417 237.224 168.419 185.919 177.466C134.614 186.512 87.3475 189.88 52.4131 188.025C34.9378 187.097 20.6048 184.864 10.4094 181.413C5.31129 179.687 1.2982 177.673 -1.55065 175.403C-4.39293 173.14 -6.02786 170.664 -6.49797 167.998C-6.96807 165.331 -6.27853 162.446 -4.38195 159.346C-2.481 156.24 0.601152 152.974 4.80154 149.609C13.2015 142.878 25.9066 135.879 42.0107 129.03C74.2038 115.338 119.772 102.337 171.077 93.29C222.382 84.2435 269.649 80.8759 304.583 82.731C322.058 83.659 336.391 85.8913 346.587 89.3428C351.685 91.0688 355.698 93.0831 358.547 95.3522C361.389 97.6161 363.024 100.092 363.494 102.758Z" stroke="#CBE3FF" stroke-width="2"/>
<path opacity="0.965517" d="M365.628 117.486C365.864 120.183 364.926 122.998 362.766 125.92C360.602 128.849 357.246 131.834 352.769 134.82C343.814 140.793 330.547 146.66 313.908 152.079C280.644 162.914 234.117 171.895 182.219 176.437C130.321 180.979 82.9409 180.215 48.3016 175.323C30.9738 172.875 16.8901 169.403 7.03459 165.076C2.10635 162.912 -1.71582 160.556 -4.35599 158.047C-6.99007 155.544 -8.40293 152.935 -8.63883 150.238C-8.87472 147.541 -7.93625 144.727 -5.77671 141.804C-3.61219 138.875 -0.25715 135.89 4.2206 132.904C13.1752 126.931 26.4421 121.065 43.0817 115.645C76.3455 104.811 122.873 95.8289 174.771 91.2873C226.669 86.7457 274.048 87.5095 308.688 92.4016C326.016 94.8488 340.099 98.3216 349.955 102.648C354.883 104.812 358.705 107.168 361.345 109.677C363.979 112.18 365.392 114.789 365.628 117.486Z" stroke="#CBE3FF" stroke-width="2"/>
<path d="M366.343 132.353C366.343 135.06 365.163 137.783 362.757 140.506C360.345 143.235 356.743 145.916 352.022 148.501C342.581 153.67 328.853 158.357 311.805 162.306C277.724 170.199 230.591 175.091 178.495 175.091C126.398 175.091 79.2655 170.199 45.1842 162.306C28.1356 158.357 14.4082 153.67 4.96715 148.501C0.246198 145.916 -3.35612 143.235 -5.76764 140.506C-8.1736 137.783 -9.35376 135.06 -9.35376 132.353C-9.35376 129.646 -8.1736 126.924 -5.76764 124.201C-3.35612 121.471 0.246198 118.791 4.96715 116.206C14.4082 111.036 28.1356 106.349 45.1842 102.4C79.2655 94.5071 126.398 89.6157 178.495 89.6157C230.591 89.6157 277.724 94.5071 311.805 102.4C328.853 106.349 342.581 111.036 352.022 116.206C356.743 118.791 360.345 121.471 362.757 124.201C365.163 126.924 366.343 129.646 366.343 132.353Z" stroke="#CBE3FF" stroke-width="2"/>
</g>
</svg>
