<svg width="80" height="80" viewBox="0 0 80 80" fill="none" xmlns="http://www.w3.org/2000/svg">
<rect width="80" height="80" rx="16" fill="white"/>
<path d="M41.6614 18.0175C41.9951 17.2862 42.6176 17.08 43.1351 17.0575C43.9226 17.02 44.7476 17.5637 45.5239 18.205C46.0751 18.8275 46.7351 19.3075 47.5001 19.645C48.0289 19.8325 48.5539 19.87 49.0864 19.8437C49.8364 19.8062 50.5976 19.6412 51.3514 19.6037L51.3926 19.6L51.7339 19.57C52.5964 19.5287 53.4101 19.7312 54.1826 20.1775C54.8914 20.8225 55.2026 21.625 55.1051 22.5925C54.9401 23.3912 55.0826 24.1225 55.5289 24.7862C56.2976 25.3262 57.1039 25.7987 57.9514 26.2C58.8289 26.68 59.3801 27.4037 59.6201 28.3675C59.7064 29.3875 59.2339 30.04 58.2139 30.3212C56.8864 30.655 55.1014 30.655 53.5976 31.8175C51.4001 33.6512 50.7101 35.5 49.7539 35.7812C49.2851 35.2487 46.3601 32.9875 41.4551 31.9037C40.5776 28.8775 40.0451 21.5725 41.6614 18.0175Z" fill="#FCC21B"/>
<path d="M46.6113 31.2586C47.4738 29.5336 49.9301 26.4998 50.5188 27.0998C51.1001 27.7523 49.7613 31.1423 48.8201 32.8036C48.4863 32.4511 47.4101 31.7123 46.9413 31.5886" fill="#D19B15"/>
<path d="M50.9499 36.7825C50.4436 36.7825 49.9486 36.5237 49.6674 36.0587C47.0874 31.8137 41.2449 32.26 41.1886 32.2675C40.3636 32.335 39.6362 31.7275 39.5649 30.9062C39.53 30.5112 39.6528 30.1184 39.9064 29.8135C40.16 29.5086 40.5239 29.3164 40.9186 29.2787C41.2336 29.2487 48.6699 28.6375 52.2324 34.5062C52.6637 35.215 52.4349 36.1375 51.7299 36.565C51.4824 36.7112 51.2161 36.7825 50.9499 36.7825Z" fill="#8D6E63"/>
<path d="M52.0225 61.7763C45.5987 63.3588 36.67 63.2463 30.2912 61.9863C24.3212 60.805 19.75 57.2838 20.275 50.3538C20.8075 43.3413 25.4537 36.7375 31.8437 33.8275C38.0275 31.0113 46.3262 29.6388 50.6987 36.0288C51.7862 37.6188 53.8637 41.1475 53.9612 42.88C53.9687 43.0188 53.9762 43.1425 54.0062 43.2625C54.0137 43.6975 54.19 44.1363 54.6175 44.4588C57.3662 46.54 59.3687 49.3 59.7362 53.0838C60.1712 57.595 55.9037 60.82 52.0225 61.7763Z" fill="#FCC21B"/>
<path d="M46.3263 50.1737C45.5463 48.9062 44.11 47.53 42.7525 46.3487L43.8063 43.4312C44.7438 44.1625 45.5688 44.8487 46.2138 45.4412C46.3188 45.5425 46.4838 45.55 46.6038 45.4637L49.0188 43.6675C49.0863 43.615 49.1275 43.54 49.1388 43.4537C49.1428 43.4116 49.1378 43.3691 49.1243 43.3291C49.1107 43.289 49.0888 43.2522 49.06 43.2212C48.3438 42.4225 46.7913 41.0237 45.0925 39.8725L45.7113 38.1625C45.7825 37.9675 45.685 37.7537 45.4863 37.6787L42.6475 36.6512C42.4525 36.58 42.235 36.6812 42.1638 36.8762L41.7025 38.155C39.0288 37.3262 36.9063 37.5925 35.2413 38.9837C33.9363 40.0787 33.3738 41.6425 33.7713 43.06C34.1763 44.5712 35.3613 45.6062 36.8613 46.915L37.0525 47.0837C37.4013 47.3837 37.7725 47.695 38.1363 48.0062L36.8538 51.5537C35.17 50.4512 33.76 48.925 33.52 48.5912C33.4751 48.5292 33.4082 48.4866 33.333 48.472C33.2579 48.4574 33.1799 48.4719 33.115 48.5125L30.3325 50.29C30.265 50.3312 30.2163 50.4025 30.1975 50.485C30.1825 50.5637 30.1975 50.6462 30.2425 50.7137C31.0788 51.9737 32.4475 53.3837 33.9063 54.4862C34.255 54.7487 34.78 55.1162 35.425 55.5025L34.9413 56.8337C34.8738 57.0287 34.9713 57.2425 35.1663 57.3137L38.0088 58.345C38.2038 58.4162 38.4213 58.315 38.4925 58.12L38.8938 57.01C41.4888 57.715 43.7688 57.3062 45.5313 55.7987C47.2338 54.34 47.5263 52.2925 46.3263 50.1737ZM40.4425 41.65L39.6663 43.7987C38.9425 43.2362 38.5563 42.8125 38.83 42.205C39.115 41.5825 39.8238 41.5412 40.4425 41.65ZM41.2113 50.6125C41.71 51.0962 42.0625 51.5425 42.0963 51.9512C42.1113 52.1837 42.025 52.4087 41.8225 52.6412C41.47 53.05 40.9075 53.1287 40.3263 53.0575L41.2113 50.6125Z" fill="#424242"/>
</svg>
