<svg width="269" height="26" viewBox="0 0 269 26" fill="none" xmlns="http://www.w3.org/2000/svg">
<path d="M241.118 6.09849C241.99 5.90934 242.796 5.88232 243.669 6.30115C244.699 6.78754 245.611 6.03093 245.532 4.90953C245.532 4.81495 245.532 4.73388 245.505 4.63931C245.32 3.86919 245.148 3.09908 244.977 2.383C243.536 1.72097 243.602 3.61248 242.426 3.72056C241.713 3.16662 240.722 3.05854 239.651 3.22067C239.083 3.30173 238.475 3.03152 237.894 2.8829C236.282 2.49108 235.727 2.74779 234.67 4.43665C234.088 4.11238 233.52 3.6395 232.886 3.5179C232.331 3.40981 231.697 3.7611 231.089 3.7611C228.895 3.7611 226.715 3.68003 224.521 3.6395C224.085 3.62599 223.636 3.51791 223.213 3.59898C220.795 4.05835 218.284 3.89622 216.025 4.95007C214.756 4.3691 213.527 4.0043 212.179 4.24749C211.585 4.35558 210.95 4.40963 210.356 4.34208C208.136 4.09888 205.929 4.45016 203.815 4.84197C200.828 5.39592 197.895 5.36889 194.922 5.1257C194.486 5.08517 194.036 5.1257 193.6 5.05814C192.741 4.93654 192.067 5.34188 191.354 5.90933C190.151 5.07166 188.737 4.95006 187.337 5.09868C185.606 5.27432 183.795 5.11219 182.17 5.9904C181.879 6.15253 181.496 6.20657 181.152 6.20657C179.408 6.19306 177.664 6.08497 175.906 6.12551C175.048 6.13902 174.149 6.26062 173.356 6.58488C171.506 7.32798 169.683 7.09829 167.978 6.38222C166.709 5.84178 165.586 5.84177 164.423 6.34168C163.657 6.67945 162.93 6.80105 162.124 6.58488C161.067 6.28764 159.983 6.34168 159.019 6.81456C157.975 7.32797 156.918 7.20637 155.927 6.94967C154.011 6.46327 152.081 6.58488 150.152 6.63893C149.491 6.65244 148.831 7.01723 148.17 7.24691C147.086 7.62522 146.029 8.13863 144.946 7.24691C144.774 7.0983 144.404 7.04425 144.193 7.12531C142.739 7.63873 141.259 7.23339 139.819 7.15233C138.418 7.07126 137.229 7.32797 136.026 8.24671C134.612 6.70647 132.802 7.2334 131.084 7.32798C129.961 7.39553 128.838 7.82788 127.781 7.00371C127.609 6.8686 127.252 6.8551 127.014 6.90914C124.371 7.49011 121.755 6.76052 119.125 6.80105C118.689 6.81456 118.24 6.81456 117.804 6.747C116.826 6.58487 116.39 7.24691 115.914 8.13863C115.571 7.8549 115.28 7.54415 114.936 7.38202C114.566 7.20638 114.13 7.08477 113.734 7.08477C113.219 7.09829 112.664 7.40905 112.188 7.31447C109.928 6.86861 107.656 6.89562 105.369 6.88211C103.704 6.8686 102.079 6.6119 100.388 6.90914C99.3042 7.0983 98.1413 6.74701 97.0049 6.66594C96.1328 6.59839 95.2474 6.38221 94.4149 6.53083C90.5696 7.17935 86.6979 6.69296 82.8526 7.00371C82.509 7.03074 82.1655 6.88212 81.8087 6.84159C79.3773 6.53084 76.9591 6.20657 74.5277 5.93635C74.1312 5.89582 73.5763 5.97689 73.312 6.2336C72.7306 6.80106 72.0963 6.88211 71.3695 6.82806C70.1538 6.73349 68.9381 6.65242 67.7224 6.55785C66.5463 5.07165 65.1721 6.13901 63.8639 6.20657C62.8067 6.27412 61.7496 6.24711 60.7718 5.70667C58.9747 4.70687 57.2568 4.869 55.5258 5.96338C54.2836 6.76052 52.9887 6.71998 51.9051 5.59858C51.4955 5.16623 51.0462 5.01762 50.5044 4.96357C49.0244 4.80144 47.5444 4.61229 46.0645 4.43665C45.7209 4.39611 45.3509 4.40962 45.0205 4.30154C42.708 3.55844 40.3295 3.66652 37.951 3.5179C36.286 3.40981 34.6342 3.20716 32.9825 3.0045C32.2028 2.90992 31.4761 2.7613 30.6436 2.8829C29.4543 3.05854 28.2254 3.19365 27.0229 2.61268C26.5075 2.36948 25.7411 2.28841 25.239 2.50459C23.4419 3.28822 21.8165 2.47758 20.1383 2.11278C19.0284 1.86959 17.9316 1.45075 16.8216 1.36968C15.6984 1.28862 14.5488 1.57233 13.4916 0.88328C13.3199 0.761681 12.9366 0.802221 12.7516 0.923819C12.1306 1.32915 11.5888 1.07244 11.0074 0.842756C10.4392 0.626583 9.81812 0.504982 9.23669 0.315828C7.91528 -0.116518 6.64672 -0.211096 5.47067 0.721155C4.92889 1.1535 4.36066 1.09947 3.72638 0.964357C3.14496 0.829248 2.5107 0.856264 1.90285 0.923819C0.89858 1.04542 0.50213 1.45075 0.356775 2.45055C0.21142 3.40983 0.118927 4.38261 0 5.42295C0.290711 5.62561 0.554993 5.96337 0.858918 6.0039C2.58997 6.17955 4.17566 7.19287 5.97278 6.90914C6.05206 6.89563 6.17099 6.88212 6.23706 6.90914C7.69062 7.69277 9.28952 7.3685 10.7959 7.62521C12.4873 7.90894 14.1127 7.88191 15.923 7.57116C16.6498 7.99 17.4823 8.46289 18.3412 8.96279C19.0548 8.43587 19.689 7.86841 20.7065 8.20618C21.4201 8.44938 22.3187 8.12511 23.0322 8.38181C23.7854 8.65203 24.499 8.80066 25.2654 8.96279C26.3886 9.19247 27.3268 9.01683 28.3047 8.58448C28.5425 8.47639 28.82 8.48991 29.2693 8.42235C29.3486 8.7331 29.3486 9.09789 29.5204 9.32758C29.7054 9.57077 30.0357 9.80046 30.3264 9.841C30.6568 9.88153 31.0268 9.74641 31.3439 9.59779C33.4978 8.62501 35.5989 9.01684 37.6735 9.88154C38.4399 10.8949 39.682 10.8273 40.792 11.3812C41.0959 11.1245 41.4263 10.8408 41.902 10.449C42.3513 10.5571 42.9195 10.6922 43.7123 10.8678C43.4216 11.1245 43.3027 11.2326 43.0913 11.4218C43.4216 11.5569 43.7916 11.692 44.1352 11.8676C44.5184 12.0703 44.8752 12.3405 45.2716 12.5432C46.4212 13.1241 46.9366 13.6781 47.6105 15.0562C48.2712 16.4208 49.3944 17.0693 50.8347 16.8667C51.6408 16.7586 52.3544 16.664 53.134 17.0153C53.9797 17.3936 54.8651 17.1504 55.6975 16.8261C56.5036 16.5154 57.3229 16.5424 57.9175 17.1774C58.7632 18.0961 59.7807 18.0691 60.8511 18.0286C61.9743 17.9881 63.0842 17.7989 64.181 18.488C64.6039 18.7582 65.3835 18.6096 65.9385 18.4609C66.8371 18.2177 67.5902 18.3664 68.4756 18.6636C69.797 19.1095 71.2109 19.2581 72.5984 19.4472C74.6863 19.7445 76.8005 19.6094 78.8751 20.1498C79.6944 20.366 80.6194 20.1633 81.4915 20.1093C82.8922 20.0012 84.2533 19.8796 85.6672 20.3389C86.6318 20.6497 87.755 20.4876 88.8122 20.5281C90.3846 20.5956 91.9571 20.6092 93.5296 21.7036C92.9746 21.9062 92.5782 22.2034 92.2478 22.1359C90.0939 21.69 87.9004 22.244 85.7333 21.6225C83.619 21.0145 81.3858 21.2712 79.1923 21.3252C78.1483 21.3523 77.0648 21.4739 76.0473 21.2712C73.4309 20.7443 70.8145 20.7037 68.1717 20.7173C66.2424 20.7308 64.3264 20.393 62.3971 20.3254C60.2036 20.2579 57.9968 20.2849 55.8033 20.3525C55.2218 20.366 54.6536 20.6497 53.874 20.8659C54.1515 21.3117 54.2704 21.636 54.4951 21.8387C55.1822 22.4331 56.0015 22.7304 56.9132 22.7979C58.6575 22.906 60.415 23.0681 62.1593 23.2168C63.1239 23.2978 64.1017 23.3113 65.0399 23.541C67.2203 24.0815 69.4006 24.068 71.5941 23.8653C72.6513 23.7707 73.6555 23.9193 74.6995 24.149C76.7477 24.5814 78.8751 24.784 80.9629 24.8786C83.7643 25.0137 86.5658 25.1353 89.3671 25.3785C91.9835 25.5947 94.6264 25.392 97.256 25.338C98.4849 25.3109 99.7138 25.1083 100.916 25.5406C101.075 25.5947 101.26 25.5541 101.445 25.5406C102.066 25.5271 102.7 25.6082 103.282 25.4461C103.797 25.2974 104.233 24.8786 104.788 24.5273C105.132 25.0002 105.422 25.419 105.753 25.8514C107.312 25.0137 108.898 25.0137 110.483 25.7298C110.721 25.8379 110.972 25.9865 111.21 25.9865C113.39 26 115.571 26 117.857 26C118.346 24.73 118.293 23.6626 117.249 22.6223C116.337 21.7171 115.452 21.0415 114.091 20.9469C112.796 20.8524 111.527 20.4065 110.259 20.1093C110.1 19.5688 110.404 19.4067 110.774 19.4472C111.382 19.5148 112.003 19.6094 112.584 19.8255C114.95 20.6902 117.038 19.8255 119.086 18.7717C119.68 18.4609 119.839 17.7719 119.469 17.1639C118.927 16.2587 118.333 15.3805 117.791 14.4752C117.672 14.2861 117.698 14.0023 117.632 13.624C119.892 13.624 122.072 13.6376 124.239 13.6105C124.755 13.6105 125.257 13.4484 125.772 13.3944C126.102 13.3538 126.512 13.2322 126.763 13.3673C128.19 14.1645 129.697 13.8402 131.15 13.6646C133.516 13.3809 135.868 13.1782 138.233 13.6916C138.722 13.7997 139.277 13.6646 139.792 13.6646C141.193 13.6646 142.594 13.6646 143.994 13.6781C144.615 13.6781 145.223 13.7862 145.844 13.7456C149.174 13.543 152.504 13.2728 155.834 13.1241C156.944 13.0836 157.909 12.8404 158.662 12.0433C159.138 12.4486 159.534 12.7864 160.049 13.2052C160.406 12.962 160.776 12.7458 161.08 12.4756C161.741 11.8676 162.362 12.0568 162.996 12.5026H162.97C163.591 12.3405 164.146 12.5161 164.741 12.7458C165.454 13.0296 166.287 13.2998 167.027 13.1917C170.925 12.6648 174.889 12.5432 178.681 11.3137C179.17 11.1516 179.659 10.9759 180.307 10.7462C180.531 11.0164 180.796 11.3407 181.113 11.7055C181.853 11.3272 182.566 10.8273 183.359 10.5841C184.165 10.3274 185.051 10.3139 186.028 10.1788C186.028 11.9217 184.284 10.7868 183.98 11.7595C184.099 12.2729 184.522 12.1243 184.839 12.1243C186.583 12.0973 188.341 12.0838 190.085 11.9352C190.64 11.8946 191.222 11.5163 191.671 11.138C191.948 10.9084 191.975 10.3814 192.199 9.75993C193.111 9.66536 194.208 8.93576 195.371 9.78695C195.358 10.8273 194.261 10.4355 193.878 10.9894C193.997 11.084 194.116 11.2867 194.221 11.2731C195.265 11.138 196.296 10.9354 197.34 10.8273C198.106 10.7327 198.899 10.7327 199.824 10.6922C200.551 10.2869 201.027 8.98981 202.361 9.36812C202.467 9.75993 202.573 10.1517 202.731 10.7462C205.017 10.2733 207.29 9.80046 209.602 9.31407C209.708 9.78695 209.801 10.1788 209.893 10.5976C211.003 9.96259 211.228 9.9626 212.708 10.0842C213.487 10.1518 214.267 10.0301 214.994 10.0031C216.157 8.16564 216.157 8.16565 218.76 9.23301C219.896 9.00332 220.808 7.89543 222.196 8.07108C222.13 8.44938 222.063 8.81417 221.958 9.43567C222.658 9.04385 223.173 8.74662 223.702 8.46289C224.706 7.90895 225.697 7.30095 226.887 8.04404C227.138 8.19266 227.613 8.15214 227.891 8.01703C228.961 7.4901 229.965 7.2334 231.155 7.7333C231.67 7.94948 232.41 7.8549 232.965 7.66575C234.762 7.04425 236.586 7.16585 238.422 7.17936C239.453 7.19287 240.537 7.26043 241.145 6.09849C241.197 5.94987 241.25 5.80124 241.29 5.65262C241.211 5.78773 241.158 5.93636 241.118 6.09849ZM114.091 13.3808C113.694 13.4484 113.404 13.516 113.113 13.5295C113.073 13.5295 112.981 13.1377 112.994 13.1377C113.219 13.0431 113.443 12.9485 113.681 12.9215C113.76 12.908 113.866 13.1106 114.091 13.3808ZM188.922 9.92206C188.856 10.0437 188.777 10.1653 188.711 10.3004C188.618 10.1653 188.46 10.0437 188.447 9.89504C188.433 9.78696 188.592 9.65185 188.671 9.54376C188.751 9.66536 188.83 9.80046 188.922 9.92206ZM207.488 8.62502C207.356 8.70608 207.224 8.77363 207.092 8.8547C207.026 8.7331 206.96 8.61151 206.92 8.48991C206.92 8.4764 207.079 8.3548 207.118 8.36831C207.264 8.43586 207.369 8.54395 207.488 8.62502ZM98.802 14.5293C98.7227 14.5158 98.5774 14.5158 98.5774 14.5022C98.5774 14.3671 98.5906 14.232 98.6038 14.0834C98.6831 14.0969 98.8285 14.0969 98.8285 14.1104C98.8417 14.259 98.8152 14.3942 98.802 14.5293ZM108.62 14.1239L108.647 14.3401L108.462 14.2861L108.62 14.1239ZM102.343 12.1243C102.409 12.1514 102.528 12.1784 102.555 12.2324C102.581 12.2865 102.515 12.381 102.489 12.4621C102.383 12.4081 102.277 12.3405 102.172 12.2865C102.224 12.2189 102.291 12.1784 102.343 12.1243ZM187.852 7.11181C187.799 7.15234 187.733 7.21988 187.68 7.21988C187.627 7.21988 187.561 7.15234 187.508 7.11181C187.561 7.07127 187.627 7.00371 187.68 7.00371C187.733 7.00371 187.786 7.07127 187.852 7.11181ZM103.136 14.2726L103.229 14.4077L103.083 14.4347L103.136 14.2726ZM93.2653 14.0969L93.4503 13.9753L93.4767 14.1645L93.2653 14.0969ZM186.359 9.13844L186.531 9.23301L186.359 9.32758V9.13844ZM220.597 5.69316L220.504 5.89583L220.412 5.69316H220.597ZM134.031 8.05757L134.203 8.13863L134.031 8.21969V8.05757Z" fill="#1B424C"/>
<path d="M256.288 2.86935C255.958 1.82902 255.667 1.46422 254.98 1.66688C253.011 2.24785 250.751 2.13977 249.324 4.08533C249.232 4.20693 249.007 4.22044 248.848 4.288C248.73 4.17991 248.492 4.07182 248.492 3.96373C248.611 2.32892 248.505 2.1938 247.091 2.50455C246.84 2.5586 246.628 2.72074 246.338 2.86935C246.06 3.99076 245.849 5.11216 246.417 6.38218C247.699 6.22005 248.954 6.05791 250.315 5.88227C250.434 5.61205 250.593 5.22024 250.831 4.66629C251.306 4.90949 251.742 5.13917 252.271 5.40939C252.866 4.88247 253.46 4.23395 254.174 3.77458C254.834 3.34223 255.614 3.12606 256.341 2.8018L256.288 2.86935Z" fill="#1B424C"/>
<path d="M256.341 2.8018C256.129 3.84214 256.473 4.67981 257.2 5.70664C257.781 4.92301 258.217 4.31501 258.667 3.70702C259.578 3.51787 260.609 4.66629 261.217 3.3152C260.9 3.13956 260.49 2.89637 259.922 2.5586C261.138 2.13976 263.159 1.802 263.595 1.97764C263.82 2.05871 263.965 2.3154 264.164 2.47754C264.851 2.99095 265.445 2.89637 265.881 2.23433C266.133 1.84252 265.948 1.23453 265.525 1.13996C265.102 1.04538 264.666 0.964312 264.243 0.9508C263.635 0.923779 263.014 0.991341 262.406 0.991341C259.499 0.937296 259.076 1.13997 257.266 3.59895C256.936 3.36926 256.605 3.13957 256.275 2.89637C256.288 2.86935 256.341 2.8018 256.341 2.8018Z" fill="#1B424C"/>
<path d="M269 1.19407C267.996 1.12651 267.996 1.12651 267.613 2.27494C267.758 2.356 267.916 2.51813 268.022 2.49111C268.656 2.31547 268.947 1.84259 269 1.19407Z" fill="#1B424C"/>
<path d="M254.531 4.82843C254.597 4.80141 254.702 4.77438 254.716 4.73385C254.729 4.6798 254.676 4.57173 254.636 4.54471C254.583 4.5312 254.517 4.59875 254.451 4.62577C254.464 4.69332 254.491 4.76088 254.531 4.82843Z" fill="#1B424C"/>
</svg>
