<svg width="64" height="64" viewBox="0 0 64 64" fill="none" xmlns="http://www.w3.org/2000/svg">
<rect width="64" height="64" rx="16" fill="#CBE3FF"/>
<path fill-rule="evenodd" clip-rule="evenodd" d="M21.172 26.5055C20 27.6762 20 29.5628 20 33.3335V34.6668C20 39.6948 20 42.2095 21.5627 43.7708C23.1253 45.3322 25.6387 45.3335 30.6667 45.3335H33.3333C38.3613 45.3335 40.876 45.3335 42.4373 43.7708C43.9987 42.2082 44 39.6948 44 34.6668V33.3335C44 29.5628 44 27.6762 42.828 26.5055C41.6573 25.3335 39.7707 25.3335 36 25.3335H28C24.2293 25.3335 22.3427 25.3335 21.172 26.5055ZM32 36.0002C32.3536 36.0002 32.6928 35.8597 32.9428 35.6096C33.1929 35.3596 33.3333 35.0205 33.3333 34.6668C33.3333 34.3132 33.1929 33.9741 32.9428 33.724C32.6928 33.474 32.3536 33.3335 32 33.3335C31.6464 33.3335 31.3072 33.474 31.0572 33.724C30.8071 33.9741 30.6667 34.3132 30.6667 34.6668C30.6667 35.0205 30.8071 35.3596 31.0572 35.6096C31.3072 35.8597 31.6464 36.0002 32 36.0002ZM36 34.6668C36.0004 35.4944 35.7442 36.3017 35.2666 36.9775C34.789 37.6533 34.1135 38.1643 33.3333 38.4402V41.3335H30.6667V38.4402C29.9749 38.1959 29.3635 37.7662 28.8995 37.198C28.4354 36.6298 28.1365 35.9449 28.0355 35.2182C27.9344 34.4916 28.0351 33.7511 28.3265 33.0778C28.6178 32.4045 29.0887 31.8243 29.6876 31.4006C30.2865 30.9768 30.9904 30.7259 31.7223 30.6753C32.4542 30.6246 33.1859 30.7761 33.8375 31.1133C34.4891 31.4504 35.0355 31.9602 35.4168 32.587C35.7982 33.2137 36 33.9332 36 34.6668Z" fill="#006BE8"/>
<path d="M38 26.6669C38.1987 25.4749 38.0493 24.2509 37.5697 23.1417C37.09 22.0325 36.3006 21.0852 35.296 20.4136L34.7973 20.0802C33.4839 19.2028 31.9189 18.7806 30.3424 18.8787C28.7659 18.9767 27.2652 19.5895 26.0706 20.6229L24.8933 21.6416" stroke="#006BE8" stroke-width="2.66667" stroke-linecap="round"/>
</svg>
